<svg width="400" height="300" viewBox="0 0 400 300" fill="none" xmlns="http://www.w3.org/2000/svg">
  <defs>
    <linearGradient id="grad" x1="0" y1="0" x2="1" y2="1">
      <stop offset="0%" stop-color="#6D28D9" />
      <stop offset="100%" stop-color="#9333EA" />
    </linearGradient>
  </defs>
  <rect width="400" height="300" rx="32" fill="url(#grad)" />
  <g fill="#F9FAFB" opacity="0.9">
    <path d="M160 110C160 95.0883 172.088 83 187 83H213C227.912 83 240 95.0883 240 110V122H160V110Z" />
    <rect x="148" y="118" width="104" height="90" rx="18" />
    <path d="M200 138C211.046 138 220 146.954 220 158C220 169.046 211.046 178 200 178C188.954 178 180 169.046 180 158C180 146.954 188.954 138 200 138Z" />
  </g>
  <text x="200" y="242" text-anchor="middle" font-family="'Poppins', 'Arial', sans-serif" font-size="32" fill="#F9FAFB" opacity="0.85">Produto</text>
</svg>
